# xmcd CD database file
#
# Track frame offsets:
#	150
#	27590
#	47438
#	82596
#	123904
#	153094
#
# Disc length: 2355 seconds
#
# Revision: 0
# Processed by: cddbd v1.5.2PL0 Copyright (c) Steve Scherf et al.
# Submitted via: CDex 2.23
#
DISCID=35093106
DTITLE=Steve Marcus - Something Other Than Now
DYEAR=1976
DGENRE=Jazz
TTITLE0=01 Something Other Than Now
TTITLE1=02 The New Sado Masochism Tango
TTITLE2=03 The Rites Of Darkness
TTITLE3=04 The Brown Rice Ooze
TTITLE4=05 Nazca
TTITLE5=06 Candles
EXTD=YEAR: 1976
EXTT0=
EXTT1=
EXTT2=
EXTT3=
EXTT4=
EXTT5=
PLAYORDER=
